<?xml version="1.0" encoding="iso-8859-1"?>
<!-- Generator: Adobe Illustrator 19.0.0, SVG Export Plug-In . SVG Version: 6.00 Build 0)  -->
<svg version="1.1" id="Capa_1" xmlns="http://www.w3.org/2000/svg" xmlns:xlink="http://www.w3.org/1999/xlink" x="0px" y="0px"
	 viewBox="0 0 512 512" style="enable-background:new 0 0 512 512;" xml:space="preserve">
<g>
	<g>
		<path d="M512,90V0h-90v30H301V0h-90v30H90V0H0v90h30v121H0v90h30v121H0v90h90v-30h121v30h90v-30h121v30h90v-90h-30V301h30v-90h-30
			V90H512z M241,30h30v30h-30V30z M30,30h30v30H30V30z M30,241h30v30H30V241z M60,482H30v-30h30V482z M271,482h-30v-30h30V482z
			 M422,452H301v-30h-90v30H90v-30H60V301h30v-90H60V90h30V60h121v30h90V60h121v30h30v121h-30v90h30v121h-30V452z M482,482h-30v-30
			h30V482z M482,271h-30v-30h30V271z M452,60V30h30v30H452z"/>
	</g>
</g>
<g>
</g>
<g>
</g>
<g>
</g>
<g>
</g>
<g>
</g>
<g>
</g>
<g>
</g>
<g>
</g>
<g>
</g>
<g>
</g>
<g>
</g>
<g>
</g>
<g>
</g>
<g>
</g>
<g>
</g>
</svg>
